<?xml version="1.0" encoding="UTF-8"?>
<svg width="160px" height="62px" viewBox="0 0 160 62" version="1.1" xmlns="http://www.w3.org/2000/svg" xmlns:xlink="http://www.w3.org/1999/xlink">
    <title>1024x1024-Full_Logo-Transparent_BG</title>
    <g id="Page-1" stroke="none" stroke-width="1" fill="none" fill-rule="evenodd">
        <g id="1024x1024-Full_Logo-Transparent_BG" fill-rule="nonzero">
            <path d="M12.2909453,41.6332338 C12.8477612,41.9428856 13.2256716,42.2326368 13.4244776,42.5022886 C13.6232836,42.7721393 13.7227861,43.0318408 13.7227861,43.281592 C13.7227861,43.5912438 13.6431841,43.9508458 13.4941294,44.360398 C13.3349254,44.7699502 13.1460697,45.1695522 12.9273632,45.5689552 L12.3404975,45.6089552 C11.8632836,45.0197015 11.1671642,44.5000995 10.2622886,44.0706468 C9.34746269,43.6310448 8.37293532,43.4113433 7.33870647,43.4113433 C6.97074627,43.4113433 6.57293532,43.4513433 6.13552239,43.5112438 C5.69791045,43.5810945 5.29014925,43.7110448 4.91243781,43.8909453 C4.53452736,44.0706468 4.21631841,44.3303483 3.96776119,44.6700498 C3.71900498,45.0095522 3.58985075,45.4292537 3.58985075,45.9387065 C3.58985075,46.8376119 3.98766169,47.4869652 4.79303483,47.8865672 C5.58865672,48.2760199 6.58288557,48.6157214 7.75641791,48.9054726 C8.59164179,49.1052736 9.40716418,49.3448756 10.1926368,49.6445771 C10.9783085,49.9442786 11.6744279,50.3237811 12.2710448,50.7832836 C12.8776119,51.2529353 13.3548259,51.8322388 13.7028856,52.5414925 C14.0509453,53.240796 14.2300498,54.119801 14.2300498,55.158607 C14.2300498,56.1974129 14.0210945,57.1064677 13.6033831,57.8857711 C13.1858706,58.6648756 12.6191045,59.3040796 11.9229851,59.8336318 C11.2169154,60.3530348 10.401592,60.7526368 9.45671642,61.0123383 C8.5120398,61.28199 7.54746269,61.4119403 6.53333333,61.4119403 C5.54885572,61.4119403 4.66368159,61.3319403 3.87820896,61.1820896 C3.09253731,61.0322388 2.43621891,60.8324378 1.89930348,60.6127363 C1.19323383,60.3329353 0.706069652,60.0433831 0.427661692,59.7436816 C0.139303483,59.4439801 0,59.1442786 0,58.8346269 C0,58.4750249 0.0995024876,58.0853731 0.298308458,57.6959204 C0.497114428,57.3062687 0.745870647,56.8567164 1.05412935,56.3472637 C1.25293532,56.5172139 1.52139303,56.7269652 1.86945274,56.9767164 C2.21751244,57.2264677 2.63522388,57.4660697 3.12238806,57.6959204 C3.60975124,57.9255721 4.14666667,58.1154229 4.73333333,58.2652736 C5.32,58.4250746 5.94646766,58.4949254 6.62268657,58.4949254 C7.12,58.4949254 7.61711443,58.4449751 8.08457711,58.3452736 C8.56179104,58.2453731 8.98945274,58.0853731 9.36736318,57.8557214 C9.74527363,57.6258706 10.0535323,57.3162189 10.2921393,56.9267662 C10.5307463,56.5271642 10.6501493,56.0376119 10.6501493,55.4483582 C10.6501493,54.8589055 10.520796,54.3695522 10.2722388,53.9898507 C10.0236816,53.6103483 9.68557214,53.2907463 9.2678607,53.040995 C8.85014925,52.7912438 8.38288557,52.5814925 7.86567164,52.4316418 C7.34865672,52.281791 6.82169154,52.1418905 6.29452736,52.0320398 C5.48915423,51.8622886 4.70348259,51.6423881 3.96776119,51.3727363 C3.2318408,51.1030846 2.57552239,50.7434826 1.99880597,50.2939303 C1.42208955,49.8443781 0.964577114,49.2750249 0.616517413,48.6057711 C0.268457711,47.9265672 0.0895522388,47.1174129 0.0895522388,46.1484577 C0.0895522388,45.2195025 0.288358209,44.400199 0.676218905,43.680995 C1.0640796,42.961791 1.60099502,42.3725373 2.27721393,41.9030846 C2.95343284,41.4435821 3.71900498,41.0839801 4.57432836,40.8441791 C5.42945274,40.6043781 6.32437811,40.4845771 7.24915423,40.4845771 C8.31323383,40.4845771 9.28776119,40.5944279 10.1727363,40.8240796 C11.0477612,41.0539303 11.7538308,41.3235821 12.2909453,41.6332338 Z" id="Path" fill-opacity="0.6" fill="#000000"></path>
            <path d="M36.2163184,50.8033831 C36.2163184,52.1818905 36.0471642,53.5104478 35.7090547,54.799005 C35.3711443,56.0776119 34.8340299,57.2163184 34.0883582,58.2053731 C33.3424876,59.1942289 32.3878607,59.9834826 31.2045771,60.5727363 C30.0210945,61.1621891 28.599204,61.4618905 26.9086567,61.4618905 C25.2280597,61.4618905 23.8061692,61.1820896 22.6425871,60.6127363 C21.479204,60.0533333 20.5345274,59.2841791 19.798607,58.3351244 C19.0726368,57.3763184 18.5357214,56.2575124 18.1976119,54.9789055 C17.8595025,53.7002985 17.6905473,52.3516418 17.6905473,50.9432836 C17.6905473,49.5347264 17.8893532,48.1962189 18.2772139,46.9275622 C18.6650746,45.6589055 19.2616915,44.5500498 20.0471642,43.6111443 C20.8328358,42.6620896 21.8073632,41.9130348 22.9707463,41.3536318 C24.1343284,40.7942289 25.5064677,40.5044776 27.0776119,40.5044776 C28.7283582,40.5044776 30.1305473,40.7842786 31.2839801,41.3536318 C32.4376119,41.9130348 33.3723383,42.6722388 34.0983085,43.6111443 C34.8240796,44.5500498 35.361194,45.6489552 35.6993035,46.8875622 C36.0471642,48.1162189 36.2163184,49.4248756 36.2163184,50.8033831 Z M32.4674627,50.8033831 C32.4674627,49.9343284 32.3878607,49.0652736 32.238607,48.2061692 C32.079602,47.3470647 31.8111443,46.5679602 31.4133333,45.878607 C31.0155224,45.1894527 30.4686567,44.6300498 29.7625871,44.2105473 C29.0565174,43.7910448 28.1416915,43.5711443 27.0181095,43.5711443 C25.9540299,43.5711443 25.0591045,43.7808955 24.3331343,44.2105473 C23.6171144,44.6300498 23.040398,45.1894527 22.6226866,45.878607 C22.1952239,46.5679602 21.8969154,47.3470647 21.7078607,48.2061692 C21.5289552,49.0652736 21.4294527,49.9343284 21.4294527,50.8033831 C21.4294527,51.6823881 21.5090547,52.561393 21.6581095,53.4704478 C21.8073632,54.3695522 22.1056716,55.1787065 22.5233831,55.8979104 C22.9408955,56.6171144 23.5078607,57.2063682 24.2137313,57.6758209 C24.919801,58.1353234 25.8147264,58.3751244 26.918607,58.3751244 C28.0421891,58.3751244 28.9771144,58.1454726 29.7028856,57.6758209 C30.438806,57.2163184 30.9956219,56.6171144 31.3934328,55.8979104 C31.7912438,55.1787065 32.0597015,54.3695522 32.2187065,53.4704478 C32.3878607,52.561393 32.4674627,51.6823881 32.4674627,50.8033831 Z" id="Shape" fill-opacity="0.6" fill="#000000"></path>
            <path d="M57.7351244,58.3651741 C58.4909453,58.3651741 59.1870647,58.2652736 59.8234826,58.0455721 C60.4499502,57.8358209 60.9968159,57.5759204 61.4443781,57.2563184 C61.8917413,56.9466667 62.239801,56.6171144 62.4983085,56.2575124 C62.7470647,55.9078607 62.8762189,55.5882587 62.8762189,55.2985075 L62.8762189,40.7442786 L63.1247761,40.7442786 C63.1745274,40.7442786 63.2541294,40.7343284 63.3536318,40.7243781 C63.4529353,40.7142289 63.5424876,40.7042786 63.6320398,40.7042786 C64.4175124,40.7042786 65.0837811,40.9140299 65.6308458,41.3136318 C66.1777114,41.7231841 66.4561194,42.4624876 66.4561194,43.5311443 L66.4561194,60.8224876 L62.8762189,60.8224876 L62.8762189,58.9944279 C62.319403,59.6338308 61.5337313,60.2031841 60.519602,60.7026866 C59.5152239,61.20199 58.2025871,61.4517413 56.6115423,61.4517413 C54.9806965,61.4517413 53.7178109,61.20199 52.8228856,60.6925373 C51.9178109,60.1832836 51.2616915,59.5438806 50.8240796,58.7446766 C50.3864677,57.9556219 50.1279602,57.0865672 50.0483582,56.1474627 C49.9689552,55.198607 49.919204,54.2995025 49.919204,53.4204975 L49.919204,40.7442786 L50.1677612,40.7442786 C50.2274627,40.7442786 50.2971144,40.7343284 50.3964179,40.7243781 C50.4959204,40.7142289 50.5854726,40.7042786 50.6648756,40.7042786 C51.4505473,40.7042786 52.1168159,40.9040796 52.6636816,41.2937313 C53.2105473,41.6931343 53.4891542,42.4224876 53.4891542,43.4913433 L53.4891542,53.4505473 C53.4891542,54.5492537 53.5685572,55.4282587 53.7178109,56.0776119 C53.8668657,56.7269652 54.1850746,57.2264677 54.6624876,57.5560199 C55.080199,57.8656716 55.5375124,58.0754229 56.0248756,58.1954229 C56.5319403,58.3152239 57.0987065,58.3651741 57.7351244,58.3651741 Z" id="Path" fill-opacity="0.6" fill="#000000"></path>
            <path d="M72.6612935,58.2851741 C72.4622886,57.7458706 72.3430846,57.1663682 72.3032836,56.5271642 C72.2634826,55.8979104 72.2336318,55.2684577 72.2336318,54.6491542 L72.2336318,34.8706468 L72.4921393,34.8706468 C72.5518408,34.8706468 72.6214925,34.8606965 72.720995,34.8507463 C72.8202985,34.840597 72.9098507,34.8306468 72.9894527,34.8306468 C73.7450746,34.8306468 74.4113433,35.0304478 74.9683582,35.4200995 C75.5251741,35.8095522 75.8135323,36.5287562 75.8135323,37.5576119 L75.8135323,40.9140299 L82.078209,40.9140299 L82.078209,44.000796 L75.8135323,44.000796 L75.8135323,54.9088557 C75.8135323,57.2163184 76.7283582,58.3751244 78.5480597,58.3751244 C78.9956219,58.3751244 79.4133333,58.2953234 79.8109453,58.1454726 C80.198806,57.9956219 80.5568159,57.8057711 80.8650746,57.5960199 C81.1733333,57.3862687 81.4318408,57.1765174 81.640796,56.9866667 C81.8495522,56.7868657 81.9888557,56.6469652 82.038408,56.5671642 C82.3765174,56.9866667 82.6650746,57.3962189 82.9036816,57.7958209 C83.1422886,58.1852736 83.2616915,58.5749254 83.2616915,58.9345274 C83.2616915,59.1842786 83.1323383,59.4638806 82.8837811,59.7536318 C82.6352239,60.0533333 82.2772139,60.3229851 81.8296517,60.5826866 C81.3822886,60.8324378 80.8252736,61.0521393 80.1689552,61.2220896 C79.5126368,61.3918408 78.7868657,61.4718408 78.001194,61.4718408 C76.5395025,61.4718408 75.3759204,61.1920398 74.5108458,60.6226866 C73.6457711,60.0433831 73.0292537,59.2742289 72.6612935,58.2851741 Z" id="Path" fill-opacity="0.6" fill="#000000"></path>
            <path d="M86.6724378,40.7442786 L86.921194,40.7442786 C86.9806965,40.7442786 87.0503483,40.7343284 87.1498507,40.7243781 C87.2491542,40.7142289 87.3387065,40.7042786 87.4282587,40.7042786 C88.2137313,40.7042786 88.88,40.9140299 89.4270647,41.3136318 C89.9739303,41.7231841 90.2523383,42.4624876 90.2523383,43.5311443 L90.2523383,57.0167164 C90.2523383,57.8358209 90.3717413,58.4151244 90.6103483,58.7446766 C90.8489552,59.0843781 91.4057711,59.2541294 92.2710448,59.2541294 L92.2710448,60.7725373 C92.0222886,60.8525373 91.6744279,60.9323383 91.2467662,60.9822886 C90.8091542,61.0421891 90.3816915,61.0722388 89.9639801,61.0722388 C89.1486567,61.0722388 88.52199,60.9422886 88.0945274,60.6925373 C87.6569154,60.4429851 87.3387065,60.1032836 87.1299502,59.6837811 C86.921194,59.2642786 86.7918408,58.7946269 86.7520398,58.2652736 C86.7122388,57.7458706 86.6923383,57.2264677 86.6923383,56.7269652 L86.6923383,40.7442786 L86.6724378,40.7442786 Z" id="Path" fill-opacity="0.6" fill="#000000"></path>
            <path d="M113.461692,50.8033831 C113.461692,52.1818905 113.292736,53.5104478 112.954627,54.799005 C112.616517,56.0776119 112.079602,57.2163184 111.333731,58.2053731 C110.587861,59.1942289 109.633234,59.9834826 108.44995,60.5727363 C107.276617,61.1621891 105.844577,61.4618905 104.164179,61.4618905 C102.483582,61.4618905 101.051542,61.1820896 99.8981095,60.6127363 C98.7347264,60.0533333 97.7898507,59.2841791 97.0640796,58.3351244 C96.3281592,57.3763184 95.801194,56.2575124 95.4630846,54.9789055 C95.1249751,53.7002985 94.9558209,52.3516418 94.9558209,50.9432836 C94.9558209,49.5347264 95.1548259,48.1962189 95.5426866,46.9275622 C95.9402985,45.6589055 96.5269652,44.5500498 97.3126368,43.6111443 C98.0983085,42.6620896 99.0726368,41.9130348 100.236219,41.3536318 C101.399602,40.7942289 102.76199,40.5044776 104.333134,40.5044776 C105.993831,40.5044776 107.385871,40.7842786 108.539502,41.3536318 C109.692935,41.9130348 110.627662,42.6722388 111.363582,43.6111443 C112.089552,44.5500498 112.626468,45.6489552 112.964577,46.8875622 C113.292736,48.1162189 113.461692,49.4248756 113.461692,50.8033831 Z M109.712836,50.8033831 C109.712836,49.9343284 109.633234,49.0652736 109.484179,48.2061692 C109.324975,47.3470647 109.056517,46.5679602 108.658706,45.878607 C108.261095,45.1894527 107.71403,44.6300498 107.008159,44.2105473 C106.30209,43.7910448 105.387264,43.5711443 104.263483,43.5711443 C103.189652,43.5711443 102.304478,43.7808955 101.578706,44.2105473 C100.862687,44.6300498 100.28597,45.1894527 99.8682587,45.878607 C99.4505473,46.5679602 99.1422886,47.3470647 98.9633831,48.2061692 C98.7842786,49.0652736 98.6849751,49.9343284 98.6849751,50.8033831 C98.6849751,51.6823881 98.7643781,52.561393 98.9136318,53.4704478 C99.0726368,54.3695522 99.361194,55.1787065 99.7787065,55.8979104 C100.196418,56.6171144 100.763184,57.2063682 101.469254,57.6758209 C102.175323,58.1353234 103.080199,58.3751244 104.174129,58.3751244 C105.297711,58.3751244 106.232438,58.1454726 106.958408,57.6758209 C107.694129,57.2163184 108.251144,56.6171144 108.648955,55.8979104 C109.046567,55.1787065 109.315025,54.3695522 109.474229,53.4704478 C109.633234,52.561393 109.712836,51.6823881 109.712836,50.8033831 Z" id="Shape" fill-opacity="0.6" fill="#000000"></path>
            <path d="M118.02607,40.8342289 C118.672438,40.8342289 119.249353,40.9940299 119.776318,41.3235821 C120.293333,41.6433831 120.611542,42.2025871 120.720995,42.9918408 C121.367363,42.3424876 122.242388,41.7631841 123.346269,41.2636816 C124.4599,40.7542289 125.762587,40.5044776 127.28398,40.5044776 C129.193433,40.5044776 130.655124,40.9239801 131.659502,41.7731343 C132.673831,42.6222886 133.330149,43.6710448 133.638408,44.9397015 C133.777512,45.4991045 133.867065,46.1283582 133.886965,46.8177114 C133.916816,47.5068657 133.926766,48.1761194 133.926766,48.8254726 L133.926766,60.8324378 L130.356816,60.8324378 L130.356816,48.9452736 C130.356816,48.4159204 130.346866,47.8965174 130.336915,47.4069652 C130.326965,46.9176119 130.247363,46.4581095 130.108259,46.0284577 C129.909254,45.2993035 129.511443,44.7299502 128.894925,44.3402985 C128.278408,43.9508458 127.363582,43.7510448 126.160398,43.7510448 C124.559403,43.7510448 123.286567,44.0706468 122.33194,44.6999005 C121.377313,45.3393035 120.8999,46.0185075 120.8999,46.7476617 L120.8999,60.8224876 L117.320199,60.8224876 L117.320199,40.8740299 L117.528955,40.8740299 C117.588657,40.8740299 117.658308,40.8640796 117.757612,40.8541294 C117.847164,40.8342289 117.936716,40.8342289 118.02607,40.8342289 Z" id="Path" fill-opacity="0.6" fill="#000000"></path>
            <path d="M149.877015,41.6332338 C150.433831,41.9428856 150.821692,42.2326368 151.010547,42.5022886 C151.199602,42.7721393 151.308856,43.0318408 151.308856,43.281592 C151.308856,43.5912438 151.229254,43.9508458 151.080199,44.360398 C150.920995,44.7699502 150.732139,45.1695522 150.513433,45.5689552 L149.926766,45.6089552 C149.449353,45.0197015 148.753234,44.5000995 147.838408,44.0706468 C146.923582,43.6310448 145.949055,43.4113433 144.914826,43.4113433 C144.546866,43.4113433 144.149254,43.4513433 143.711642,43.5112438 C143.27403,43.5810945 142.866468,43.7110448 142.488557,43.8909453 C142.110647,44.0706468 141.792438,44.3303483 141.543881,44.6700498 C141.285373,45.0095522 141.16597,45.4292537 141.16597,45.9387065 C141.16597,46.8376119 141.563781,47.4869652 142.369154,47.8865672 C143.164776,48.2760199 144.159204,48.6157214 145.332537,48.9054726 C146.177711,49.1052736 146.983284,49.3448756 147.768756,49.6445771 C148.554428,49.9442786 149.250547,50.3237811 149.847164,50.7832836 C150.453731,51.2529353 150.930945,51.8322388 151.279005,52.5414925 C151.627065,53.240796 151.806169,54.119801 151.806169,55.158607 C151.806169,56.1974129 151.597214,57.1064677 151.169751,57.8857711 C150.75204,58.6648756 150.185274,59.3040796 149.489154,59.8336318 C148.783085,60.3530348 147.967761,60.7526368 147.023085,61.0123383 C146.088358,61.28199 145.103881,61.4119403 144.099502,61.4119403 C143.115025,61.4119403 142.23005,61.3319403 141.454328,61.1820896 C140.668657,61.0322388 140.012537,60.8324378 139.475423,60.6127363 C138.769353,60.3329353 138.282189,60.0433831 138.003781,59.7436816 C137.725373,59.4439801 137.58607,59.1442786 137.58607,58.8346269 C137.58607,58.4750249 137.685572,58.0853731 137.874428,57.6959204 C138.073433,57.3062687 138.32199,56.8567164 138.630249,56.3472637 C138.829055,56.5172139 139.097512,56.7269652 139.445572,56.9767164 C139.793632,57.2264677 140.211343,57.4660697 140.698507,57.6959204 C141.185871,57.9255721 141.722786,58.1154229 142.309453,58.2652736 C142.896318,58.4250746 143.522786,58.4949254 144.198806,58.4949254 C144.696119,58.4949254 145.193234,58.4449751 145.660697,58.3452736 C146.13791,58.2453731 146.565572,58.0853731 146.943483,57.8557214 C147.321393,57.6258706 147.629652,57.3162189 147.868259,56.9267662 C148.106866,56.5271642 148.226269,56.0376119 148.226269,55.4483582 C148.226269,54.8589055 148.096915,54.3695522 147.848358,53.9898507 C147.599801,53.6103483 147.261692,53.2907463 146.84398,53.040995 C146.426269,52.7912438 145.959005,52.5814925 145.44199,52.4316418 C144.924776,52.281791 144.397811,52.1418905 143.870647,52.0320398 C143.065274,51.8622886 142.279602,51.6423881 141.543881,51.3727363 C140.79801,51.1030846 140.151642,50.7434826 139.574925,50.2939303 C138.998209,49.8443781 138.540697,49.2750249 138.192637,48.6057711 C137.844577,47.9265672 137.665672,47.1174129 137.665672,46.1484577 C137.665672,45.2195025 137.864478,44.400199 138.252338,43.680995 C138.650149,42.961791 139.177114,42.3725373 139.853333,41.9030846 C140.529552,41.4435821 141.295323,41.0839801 142.150448,40.8441791 C143.005572,40.6043781 143.900498,40.4845771 144.825274,40.4845771 C145.889353,40.4845771 146.863881,40.5944279 147.748856,40.8240796 C148.63403,41.0539303 149.3399,41.3235821 149.877015,41.6332338 Z" id="Path" fill-opacity="0.6" fill="#000000"></path>
            <path d="M50.1478607,25.920398 C50.0883582,26.000199 49.959005,26.1400995 49.7502488,26.3399005 C49.5412935,26.5397015 49.2827861,26.7395025 48.9745274,26.9492537 C48.6662687,27.159005 48.318209,27.3488557 47.920398,27.4987065 C47.5227861,27.6585075 47.1050746,27.7283582 46.6575124,27.7283582 C44.8378109,27.7283582 43.9229851,26.5695522 43.9229851,24.2620896 L43.9229851,13.3639801 L50.1876617,13.3639801 L50.1876617,10.2772139 L43.9229851,10.2772139 L43.9229851,6.92099502 C43.9229851,5.88199005 43.6445771,5.17273632 43.0778109,4.78328358 C42.520796,4.39363184 41.8545274,4.19383085 41.0989055,4.19383085 C41.0093532,4.19383085 40.919801,4.20378109 40.8204975,4.21393035 C40.720995,4.2238806 40.641393,4.23383085 40.5916418,4.23383085 L40.3430846,4.23383085 L40.3430846,24.0123383 C40.3430846,24.6316418 40.3629851,25.2610945 40.4027861,25.8903483 C40.4425871,26.5297512 40.561791,27.1090547 40.760796,27.6483582 C41.1287562,28.6374129 41.7452736,29.4065672 42.6103483,29.9759204 C43.4754229,30.5353234 44.639005,30.8250746 46.1006965,30.8250746 C46.8863682,30.8250746 47.6121393,30.7351244 48.2684577,30.5753234 C48.9247761,30.4053731 49.481791,30.1956219 49.9291542,29.9359204 C50.3767164,29.6861692 50.7247761,29.4065672 50.9832836,29.1068657 C51.2318408,28.8071642 51.361194,28.5375124 51.361194,28.2877612 C51.361194,27.918209 51.241791,27.5385075 51.0031841,27.1490547 C50.7645771,26.7494527 50.4760199,26.3399005 50.1478607,25.920398 Z" id="Path" fill="#61933F"></path>
            <path d="M40.3231841,31.1247761 L40.3231841,56.6969154 C40.3231841,57.2063682 40.3430846,57.7158209 40.3828856,58.2352239 C40.4226866,58.7546269 40.5518408,59.2342289 40.760796,59.6537313 C40.9695522,60.0732338 41.2977114,60.4129353 41.7253731,60.6726368 C42.1627861,60.9223881 42.7892537,61.0521393 43.5948259,61.0521393 C44.0125373,61.0521393 44.44,61.0222886 44.8776119,60.9623881 C45.3150249,60.9024876 45.6531343,60.8324378 45.9118408,60.7526368 L45.9118408,59.2342289 C45.4045771,59.2342289 45.0167164,59.1842786 44.758209,59.0843781 C44.4897512,58.9844776 44.3008955,58.8346269 44.1715423,58.6447761 C44.0421891,58.4449751 43.9727363,58.2053731 43.9428856,57.9056716 C43.9130348,57.6059701 43.9030846,57.2463682 43.9030846,56.8268657 L43.9030846,33.6218905 C43.9030846,33.3723383 43.8831841,33.1424876 43.8533333,32.9327363 C42.9086567,32.7329353 42.0734328,32.4033831 41.3574129,31.9337313 C40.9795025,31.6941294 40.641393,31.4143284 40.3231841,31.1247761 Z" id="Path" fill-opacity="0.6" fill="#000000"></path>
            <path d="M0.7160199,10.1974129 C1.36238806,10.1974129 1.93910448,10.3572139 2.46606965,10.6869652 C2.98328358,11.0065672 3.30149254,11.5659701 3.41074627,12.3550249 C4.05711443,11.7056716 4.93233831,11.1263682 6.0360199,10.6169154 C7.1399005,10.1074627 8.45253731,9.85771144 9.97393035,9.85771144 C11.8831841,9.85771144 13.3448756,10.2772139 14.3492537,11.1263682 C15.3536318,11.9655721 16.0199005,13.0242786 16.3281592,14.2929353 C16.4674627,14.8523383 16.5468657,15.481592 16.5767164,16.1709453 C16.6065672,16.8600995 16.6165174,17.5293532 16.6165174,18.1787065 L16.6165174,30.1856716 L13.0366169,30.1856716 L13.0366169,18.3086567 C13.0366169,17.7691542 13.0266667,17.2597015 13.0167164,16.7703483 C13.0067662,16.280796 12.9273632,15.8212935 12.7880597,15.3918408 C12.5892537,14.6624876 12.1814925,14.0931343 11.5649751,13.7036816 C10.9484577,13.3140299 10.0336318,13.1142289 8.83024876,13.1142289 C7.22925373,13.1142289 5.95641791,13.4338308 5.00179104,14.0632836 C4.04716418,14.6925373 3.56995025,15.3816915 3.56995025,16.1110448 L3.56995025,30.1856716 L0,30.1856716 L0,10.2374129 L0.208756219,10.2374129 C0.268457711,10.2374129 0.338109453,10.2274627 0.43761194,10.2173134 C0.536915423,10.1974129 0.63641791,10.1974129 0.7160199,10.1974129 Z" id="Path" fill="#007A33"></path>
            <path d="M29.6332338,27.7383085 C30.4487562,27.7383085 31.1548259,27.6585075 31.761393,27.4885572 C32.3679602,27.318806 32.8849751,27.1090547 33.3126368,26.8593035 C33.7502488,26.6095522 34.11801,26.3498507 34.4262687,26.080199 C34.7345274,25.8105473 34.9832836,25.560796 35.1820896,25.3408955 C35.4903483,25.7404975 35.7687562,26.16 36.0073632,26.6095522 C36.2461692,27.0591045 36.3653731,27.4087562 36.3653731,27.6684577 C36.3653731,27.8983085 36.2959204,28.1279602 36.1566169,28.3777114 C36.0173134,28.6274627 35.7787065,28.8670647 35.440597,29.1269652 C34.7942289,29.6163184 33.9689552,30.0159204 32.9546269,30.3454726 C31.9502488,30.6752239 30.7271642,30.8350249 29.2951244,30.8350249 C27.9727363,30.8350249 26.7395025,30.6451741 25.5661692,30.2656716 C24.4027861,29.8859701 23.3785075,29.2766169 22.5034826,28.4276617 C21.6282587,27.5785075 20.9323383,26.479801 20.4250746,25.1112438 C19.9080597,23.7426866 19.6595025,22.0744279 19.6595025,20.1066667 C19.6595025,18.3285572 19.91801,16.7902488 20.4350249,15.5016915 C20.9522388,14.2029851 21.638209,13.1442786 22.4736318,12.3050746 C23.3088557,11.4760199 24.2734328,10.8666667 25.3574129,10.4670647 C26.441194,10.0674627 27.5550249,9.87781095 28.6985075,9.87781095 C30.1305473,9.87781095 31.3536318,10.1174129 32.3779104,10.5970149 C33.4021891,11.0764179 34.2374129,11.7158209 34.8837811,12.5249751 C35.5301493,13.3239801 36.0073632,14.2630846 36.3158209,15.3118408 C36.6340299,16.3406965 36.7930348,17.439602 36.7930348,18.558408 C36.7930348,18.9578109 36.7830846,19.3574129 36.7731343,19.7669652 C36.7631841,20.1765174 36.7233831,20.5661692 36.6736318,20.9257711 L23.4083582,20.9257711 C23.4879602,22.9735323 24.0348259,24.6117413 25.0292537,25.8604975 C26.0236816,27.1090547 27.5649751,27.7383085 29.6332338,27.7383085 Z M33.2131343,18.2286567 C33.2131343,17.4694527 33.1335323,16.760199 32.9844776,16.1110448 C32.8252736,15.4616915 32.5667662,14.8923383 32.2087562,14.4027861 C31.8507463,13.9134328 31.3635821,13.5237811 30.7669652,13.2441791 C30.160398,12.9643781 29.4344279,12.8244776 28.5693532,12.8244776 C27.1174129,12.8244776 25.9241791,13.3040796 24.9894527,14.2630846 C24.0547264,15.2218905 23.5275622,16.5404975 23.4183085,18.238607 L33.2131343,18.238607 L33.2131343,18.2286567 Z" id="Shape" fill="#007A33"></path>
            <path d="M101.807363,20.1665672 C101.807363,21.5450746 101.638209,22.8835821 101.3001,24.1621891 C100.96199,25.4509453 100.425075,26.5797015 99.679204,27.5685572 C98.9335323,28.5574129 97.9789055,29.3466667 96.7954229,29.9359204 C95.6220896,30.5253731 94.1900498,30.8250746 92.5096517,30.8250746 C90.8290547,30.8250746 89.4069652,30.5452736 88.2435821,29.9759204 C87.080199,29.4165174 86.1355224,28.6473632 85.399602,27.6883582 C84.6736318,26.7295522 84.1367164,25.6107463 83.798607,24.3321393 C83.4604975,23.0535323 83.2915423,21.7048756 83.2915423,20.2965174 C83.2915423,18.8879602 83.4903483,17.5494527 83.878209,16.280796 C84.2758209,15.0121393 84.8626866,13.9032836 85.6481592,12.9643781 C86.4338308,12.0155224 87.4083582,11.2662687 88.5717413,10.7068657 C89.7351244,10.1474627 91.0975124,9.85771144 92.678607,9.85771144 C94.3293532,9.85771144 95.7315423,10.1375124 96.8849751,10.7068657 C98.038408,11.2662687 98.9733333,12.0254726 99.6991045,12.9643781 C100.435025,13.9032836 100.96199,15.0021891 101.3001,16.240796 C101.638209,17.479403 101.807363,18.7880597 101.807363,20.1665672 Z M98.0583085,20.1665672 C98.0583085,19.2975124 97.9789055,18.4284577 97.8296517,17.5693532 C97.6706468,16.7102488 97.40199,15.9311443 97.0043781,15.24199 C96.6165174,14.5526368 96.0696517,13.9932338 95.3635821,13.5737313 C94.6575124,13.1542289 93.7426866,12.9345274 92.6189055,12.9345274 C91.5450746,12.9345274 90.6599005,13.1442786 89.9440796,13.5737313 C89.2280597,13.9932338 88.6513433,14.5526368 88.2336318,15.24199 C87.8059701,15.9311443 87.5076617,16.7102488 87.3287562,17.5693532 C87.1399005,18.4284577 87.0503483,19.2975124 87.0503483,20.1665672 C87.0503483,21.0455721 87.1299502,21.9247761 87.279005,22.8336318 C87.438209,23.7327363 87.7265672,24.5418905 88.1440796,25.2610945 C88.5717413,25.9802985 89.1285572,26.5695522 89.8346269,27.039204 C90.5406965,27.5086567 91.4356219,27.7383085 92.5395025,27.7383085 C93.6630846,27.7383085 94.5978109,27.5086567 95.3237811,27.039204 C96.0597015,26.5797015 96.6165174,25.9802985 97.0143284,25.2610945 C97.4119403,24.5418905 97.680597,23.7327363 97.839602,22.8336318 C97.9789055,21.9347264 98.0583085,21.0455721 98.0583085,20.1665672 Z" id="Shape" fill="#007A33"></path>
            <path d="M106.202587,10.1974129 C106.848955,10.1974129 107.435622,10.3572139 107.952836,10.6867662 C108.469851,11.0065672 108.78806,11.5558209 108.897512,12.3150249 C109.295323,11.7257711 109.88199,11.1663682 110.667463,10.6469652 C111.453134,10.1273632 112.36796,9.86766169 113.402189,9.86766169 C113.710448,9.86766169 114.038607,9.89771144 114.396617,9.95761194 C114.744677,10.0175124 115.072836,10.1074627 115.381095,10.2272637 C115.689353,10.3572139 115.93791,10.5269652 116.136716,10.7568159 C116.335721,10.9765174 116.435025,11.2762189 116.435025,11.6457711 C116.435025,12.0953234 116.325771,12.5848756 116.096915,13.1042786 C115.868259,13.6236816 115.649552,14.0531343 115.420896,14.3928358 C115.052935,14.0531343 114.665075,13.7934328 114.237413,13.6137313 C113.819701,13.4338308 113.282786,13.3339303 112.636418,13.3339303 C112.159204,13.3339303 111.701692,13.4139303 111.26408,13.5637811 C110.826667,13.7235821 110.438806,13.9333333 110.110647,14.2029851 C109.772537,14.4726368 109.50408,14.7723383 109.315224,15.1120398 C109.116219,15.4517413 109.026667,15.801194 109.026667,16.1709453 L109.026667,30.2057711 L105.446965,30.2057711 L105.446965,10.2374129 L105.745274,10.2374129 C105.834627,10.2374129 105.914229,10.2272637 106.003781,10.2173134 C106.073433,10.1974129 106.142886,10.1974129 106.202587,10.1974129 Z" id="Path" fill="#007A33"></path>
            <path d="M119.030448,30.1856716 L119.030448,0.218109453 L119.288955,0.218109453 C119.348657,0.218109453 119.418308,0.208159204 119.517612,0.198208955 C119.617114,0.188258706 119.706667,0.178308458 119.786269,0.178308458 C120.571741,0.178308458 121.23801,0.378109453 121.784876,0.787661692 C122.33194,1.19721393 122.610348,1.93631841 122.610348,3.00517413 L122.610348,30.1856716 L119.030448,30.1856716 Z M123.574925,19.7870647 L123.574925,18.3884577 L130.814129,11.1564179 C131.599801,10.4270647 132.405174,10.0575124 133.220697,10.0575124 C133.528955,10.0575124 133.807363,10.1074627 134.05592,10.2073632 C134.314428,10.3072637 134.533134,10.4171144 134.732139,10.5269652 C134.950846,10.6368159 135.169751,10.7767164 135.368557,10.9466667 L127.29393,18.9379104 L136.621493,30.1456716 C135.945274,30.3954229 135.249154,30.5253731 134.513433,30.5253731 C133.956418,30.5253731 133.399602,30.4053731 132.852736,30.1657711 C132.305672,29.9259701 131.808557,29.5363184 131.360995,29.0069652 L123.574925,19.7870647 Z" id="Shape" fill="#007A33"></path>
            <path d="M50.1478607,25.920398 C50.0883582,26.000199 49.959005,26.1400995 49.7502488,26.3399005 C49.5412935,26.5397015 49.2827861,26.7395025 48.9745274,26.9492537 C48.6662687,27.159005 48.318209,27.3488557 47.920398,27.4987065 C47.5227861,27.6585075 47.1050746,27.7283582 46.6575124,27.7283582 C44.8378109,27.7283582 43.9229851,26.5695522 43.9229851,24.2620896 L43.9229851,13.3639801 L50.1876617,13.3639801 L50.1876617,10.2772139 L43.9229851,10.2772139 L43.9229851,6.92099502 C43.9229851,5.88199005 43.6445771,5.17273632 43.0778109,4.78328358 C42.520796,4.39363184 41.8545274,4.19383085 41.0989055,4.19383085 C41.0093532,4.19383085 40.919801,4.20378109 40.8204975,4.21393035 C40.720995,4.2238806 40.641393,4.23383085 40.5916418,4.23383085 L40.3430846,4.23383085 L40.3430846,24.0123383 C40.3430846,24.6316418 40.3629851,25.2610945 40.4027861,25.8903483 C40.4425871,26.5297512 40.561791,27.1090547 40.760796,27.6483582 C41.1287562,28.6374129 41.7452736,29.4065672 42.6103483,29.9759204 C43.4754229,30.5353234 44.639005,30.8250746 46.1006965,30.8250746 C46.8863682,30.8250746 47.6121393,30.7351244 48.2684577,30.5753234 C48.9247761,30.4053731 49.481791,30.1956219 49.9291542,29.9359204 C50.3767164,29.6861692 50.7247761,29.4065672 50.9832836,29.1068657 C51.2318408,28.8071642 51.361194,28.5375124 51.361194,28.2877612 C51.361194,27.918209 51.241791,27.5385075 51.0031841,27.1490547 C50.7645771,26.7494527 50.4760199,26.3399005 50.1478607,25.920398 Z" id="Path" fill="#007A33"></path>
            <path d="M74.958408,30.3556219 L71.3785075,30.3556219 L67.4208955,20.0865672 L63.0851741,30.3556219 L59.8831841,30.3556219 L53.0218905,10.4871642 C53.3301493,10.4071642 53.6284577,10.3373134 53.9267662,10.2772139 C54.2151244,10.2173134 54.5333333,10.1974129 54.8714428,10.1974129 C56.1940299,10.1974129 57.0690547,10.9265672 57.5166169,12.3950249 L61.8521393,26.3399005 L65.8893532,16.4105473 L63.7414925,10.4471642 C64.278408,10.2772139 64.8354229,10.1974129 65.4220896,10.1974129 C66.6849751,10.1974129 67.5500498,10.8766169 68.0274627,12.2252736 L73.079005,26.3799005 L76.5295522,12.9842786 C76.7283582,12.2252736 77.0169154,11.5659701 77.4145274,11.0165174 C77.8123383,10.4670647 78.4089552,10.1874627 79.2244776,10.1874627 C79.7812935,10.1874627 80.35801,10.2973134 80.9546269,10.5269652 L74.958408,30.3556219 Z" id="Path" fill="#007A33"></path>
            <path d="M160,43.8608955 C160,44.320398 159.920398,44.76 159.771343,45.1695522 C159.612139,45.5791045 159.403383,45.9387065 159.124975,46.2583085 C158.846368,46.5679602 158.498507,46.8177114 158.110647,46.9974129 C157.712836,47.1773134 157.265274,47.2672637 156.778109,47.2672637 C156.261095,47.2672637 155.803582,47.1773134 155.405771,46.9974129 C155.00796,46.8177114 154.67005,46.5679602 154.401393,46.2583085 C154.132935,45.9486567 153.924179,45.5791045 153.784876,45.1695522 C153.645771,44.76 153.566169,44.320398 153.566169,43.8608955 C153.566169,43.401393 153.635821,42.9719403 153.784876,42.5623881 C153.934129,42.1526368 154.152836,41.7930348 154.431244,41.4833831 C154.709652,41.1737313 155.047761,40.9341294 155.445572,40.7542289 C155.843383,40.5745274 156.290746,40.4845771 156.78806,40.4845771 C157.275224,40.4845771 157.722786,40.5745274 158.120597,40.7542289 C158.518209,40.9341294 158.856318,41.1838806 159.134925,41.4833831 C159.423284,41.7930348 159.63204,42.1526368 159.781095,42.5623881 C159.930348,42.9719403 160,43.4113433 160,43.8608955 Z M159.453134,43.8608955 C159.453134,43.481194 159.393433,43.121592 159.27403,42.7820896 C159.144876,42.4324378 158.965771,42.1327363 158.747065,41.8730348 C158.518209,41.6033831 158.229851,41.3936318 157.901692,41.2437811 C157.573532,41.0839801 157.195821,41.0039801 156.78806,41.0039801 C156.370348,41.0039801 156.002388,41.0839801 155.674229,41.2437811 C155.34607,41.3936318 155.067662,41.6133333 154.839005,41.8730348 C154.610348,42.1327363 154.431244,42.4423881 154.31204,42.7820896 C154.182687,43.1317413 154.122985,43.4913433 154.122985,43.8608955 C154.122985,44.240398 154.182687,44.6 154.30209,44.9496517 C154.421294,45.2993035 154.590448,45.599005 154.819104,45.8686567 C155.047761,46.1385075 155.316418,46.3482587 155.644378,46.5080597 C155.972537,46.6678607 156.350448,46.7476617 156.778109,46.7476617 C157.185871,46.7476617 157.563582,46.6678607 157.891741,46.5080597 C158.229851,46.3482587 158.508458,46.1385075 158.737114,45.8686567 C158.965771,45.599005 159.144876,45.2993035 159.26408,44.9496517 C159.393433,44.6 159.453134,44.240398 159.453134,43.8608955 Z M158.468657,45.6989055 C158.289552,45.7888557 158.130547,45.8286567 157.991244,45.8286567 C157.881791,45.8286567 157.772537,45.8087562 157.673035,45.7488557 C157.573532,45.6989055 157.494129,45.6189055 157.424478,45.5090547 L156.668657,44.280398 L156.310647,44.280398 L156.310647,45.7488557 L155.515224,45.7488557 L155.515224,41.8230846 C155.684179,41.8131343 155.883184,41.7930348 156.111841,41.7830846 C156.340498,41.7731343 156.539502,41.7631841 156.718408,41.7631841 C157.265274,41.7631841 157.673035,41.8730348 157.921592,42.1028856 C158.170348,42.3225871 158.299502,42.6121393 158.299502,42.961791 C158.299502,43.121592 158.279602,43.2714428 158.229851,43.3914428 C158.180299,43.521194 158.130547,43.6310448 158.050945,43.720995 C157.981294,43.8208955 157.891741,43.9008955 157.792438,43.9707463 C157.692935,44.0306468 157.593433,44.0905473 157.494129,44.1305473 L158.468657,45.6989055 Z M157.434428,43.0216915 C157.434428,42.6121393 157.195821,42.4023881 156.698507,42.4023881 C156.608955,42.4023881 156.539502,42.4023881 156.479801,42.4023881 C156.4201,42.4023881 156.360398,42.4125373 156.310647,42.4125373 L156.310647,43.6610945 L156.748259,43.6610945 C156.986866,43.6610945 157.16597,43.601194 157.275224,43.4913433 C157.374726,43.3814925 157.434428,43.2214925 157.434428,43.0216915 Z" id="Shape" fill-opacity="0.6" fill="#000000"></path>
        </g>
    </g>
</svg>